<svg id="Layer_3" enable-background="new 0 0 64 64" height="512" viewBox="0 0 64 64" width="512"
     xmlns="http://www.w3.org/2000/svg">
    <g>
        <g>
            <path d="m31 22h2v23h-2z" fill="#4c506e"/>
        </g>
        <g>
            <path d="m25.125 21.273h1.999v24.142h-1.999z" fill="#787faa"
                  transform="matrix(.94 -.342 .342 .94 -9.822 10.935)"/>
        </g>
        <g>
            <path d="m25.465 32.582h24.647v1.999h-24.647z" fill="#787faa"
                  transform="matrix(.342 -.94 .94 .342 -6.689 57.611)"/>
        </g>
        <g>
            <path d="m29.907 32.968h28.577v2.001h-28.577z" fill="#4c506e"
                  transform="matrix(.546 -.838 .838 .546 -8.398 52.433)"/>
        </g>
        <g>
            <path d="m18.779 19.688h2.001v28.479h-2.001z" fill="#4c506e"
                  transform="matrix(.838 -.546 .546 .838 -15.322 16.314)"/>
        </g>
        <path d="m12 22c0-2.761 2.239-5 5-5s5 2.239 5 5c0-2.761 2.239-5 5-5s5 2.239 5 5c0-2.761 2.239-5 5-5s5 2.239 5 5c0-2.761 2.239-5 5-5s5 2.239 5 5c0-11.046-8.954-20-20-20-11.046 0-20 8.954-20 20z"
              fill="#ba4753"/>
        <path d="m41 53c0-4.971-4.029-9-9-9s-9 4.029-9 9 4.029 9 9 9 9-4.029 9-9" fill="#f6b940"/>
        <path d="m32 44c-4.971 0-9 4.029-9 9 0 1.439.346 2.794.947 4h8.053c2.209 0 4-1.791 4-4v-8.053c-1.206-.601-2.561-.947-4-.947z"
              fill="#fad85d"/>
        <path d="m37 51c0-1.302-.839-2.402-2-2.816v-2.184h-2v2h-1v-2h-2v2h-2v2h1v6h-1v2h2v2h2v-2h1v2h2v-2.184c1.161-.414 2-1.514 2-2.816 0-.771-.301-1.468-.78-2 .479-.532.78-1.229.78-2zm-3-1c.552 0 1 .449 1 1s-.448 1-1 1h-3v-2zm0 6h-3v-2h3c.552 0 1 .449 1 1s-.448 1-1 1z"
              fill="#fff"/>
        <path d="m40 14c2.209 0 4-1.791 4-4v-3.973c-3.345-2.517-7.491-4.027-12-4.027-8.199 0-15.237 4.939-18.325 12z"
              fill="#e1656e"/>
        <g>
            <path d="m52 23c-.553 0-1-.448-1-1 0-2.206-1.794-4-4-4s-4 1.794-4 4c0 .552-.447 1-1 1s-1-.448-1-1c0-2.206-1.794-4-4-4s-4 1.794-4 4c0 .552-.447 1-1 1s-1-.448-1-1c0-2.206-1.794-4-4-4s-4 1.794-4 4c0 .552-.447 1-1 1s-1-.448-1-1c0-2.206-1.794-4-4-4s-4 1.794-4 4c0 .552-.447 1-1 1s-1-.448-1-1c0-11.58 9.421-21 21-21s21 9.42 21 21c0 .552-.447 1-1 1zm-15-7c2.085 0 3.924 1.068 5 2.687 1.076-1.619 2.915-2.687 5-2.687 1.234 0 2.382.375 3.337 1.016-2.195-8.067-9.584-14.016-18.337-14.016s-16.142 5.949-18.337 14.016c.955-.641 2.103-1.016 3.337-1.016 2.085 0 3.924 1.068 5 2.687 1.076-1.619 2.915-2.687 5-2.687s3.924 1.068 5 2.687c1.076-1.619 2.915-2.687 5-2.687z"
                  fill="#8d353e"/>
        </g>
    </g>
</svg>