<svg width="276" height="277" viewBox="0 0 276 277" fill="none" xmlns="http://www.w3.org/2000/svg">
<g filter="url(#filter0_d)">
<path d="M194.569 268C156.27 226.527 139.587 170.188 149.846 113.791C150.583 109.754 147.903 105.868 143.85 105.131C139.805 104.411 135.927 107.091 135.19 111.136C124.897 167.726 123.767 224.266 158.992 268H194.569Z" fill="white"/>
<path d="M167.694 0C155.734 0 145.048 5.46887 137.996 14.0365V133.698C137.996 133.698 206.135 69.4036 206.135 38.4496C206.135 17.2106 188.924 0 167.694 0Z" fill="white"/>
<path d="M108.298 0C120.258 0 130.944 5.46887 137.996 14.0365V133.698C137.996 133.698 69.8568 69.4036 69.8568 38.4496C69.8568 17.2106 87.0674 0 108.298 0Z" fill="#8BC540"/>
<path d="M167.694 0C155.734 0 145.048 5.46887 137.996 14.0365C130.944 5.46887 120.258 0 108.298 0C87.0674 0 69.8568 17.2106 69.8568 38.4412C69.8568 69.4036 137.996 133.698 137.996 133.698C137.996 133.698 206.135 69.4036 206.135 38.4496C206.135 17.2106 188.924 0 167.694 0Z" fill="white"/>
<path d="M257.658 133.699C266.225 126.647 271.694 115.96 271.694 104.001C271.694 82.7701 254.484 65.5595 233.253 65.5595C202.291 65.5511 137.996 133.699 137.996 133.699C137.996 133.699 202.291 201.838 233.245 201.838C254.475 201.838 271.686 184.627 271.686 163.396C271.694 151.428 266.225 140.75 257.658 133.699Z" fill="white"/>
<path d="M42.747 65.5511C21.5163 65.5511 4.30569 82.7618 4.30569 103.992C4.30569 115.952 9.77457 126.638 18.3422 133.69C9.77457 140.742 4.30569 151.428 4.30569 163.388C4.30569 184.618 21.5163 201.829 42.747 201.829C73.701 201.838 137.996 133.698 137.996 133.698C137.996 133.698 73.701 65.5511 42.747 65.5511Z" fill="white"/>
</g>
<defs>
<filter id="filter0_d" x="0" y="0" width="276" height="277" filterUnits="userSpaceOnUse" color-interpolation-filters="sRGB">
<feFlood flood-opacity="0" result="BackgroundImageFix"/>
<feColorMatrix in="SourceAlpha" type="matrix" values="0 0 0 0 0 0 0 0 0 0 0 0 0 0 0 0 0 0 127 0"/>
<feOffset dy="5"/>
<feGaussianBlur stdDeviation="2"/>
<feColorMatrix type="matrix" values="0 0 0 0 0 0 0 0 0 0 0 0 0 0 0 0 0 0 0.25 0"/>
<feBlend mode="normal" in2="BackgroundImageFix" result="effect1_dropShadow"/>
<feBlend mode="normal" in="SourceGraphic" in2="effect1_dropShadow" result="shape"/>
</filter>
</defs>
</svg>
