<svg width="254" height="258" viewBox="0 0 254 258" fill="none" xmlns="http://www.w3.org/2000/svg">
<g filter="url(#filter0_d)">
<path d="M114.425 117.636C114.425 122.032 111.068 124.857 105.401 124.857H100.941V110.994C101.767 110.843 103.33 110.621 106.076 110.621C111.29 110.708 114.425 113.017 114.425 117.636ZM250 123C250 132.538 246.27 141.513 239.548 148.251L224.437 163.36V184.714C224.437 204.386 208.406 220.424 188.724 220.424H167.368L152.273 235.533C145.511 242.278 136.543 246 126.996 246C117.449 246 108.481 242.278 101.727 235.525L86.6402 220.448H65.2758C55.7285 220.448 46.7685 216.726 40.0147 209.997C33.261 203.228 29.5627 194.292 29.5627 184.738V163.36L14.452 148.275C7.70623 141.521 4 132.562 4 123.016C4 113.469 7.73004 104.502 14.452 97.7652L29.5627 82.6639V61.3016C29.5627 41.6137 45.5939 25.5919 65.2758 25.5919H86.6323L101.743 10.4748C108.481 3.72968 117.441 0 126.996 0C136.551 0 145.511 3.72174 152.265 10.4748L167.352 25.5602H188.716C198.248 25.5602 207.224 29.274 213.969 36.0112C220.731 42.7723 224.429 51.7314 224.429 61.2699V82.6322L239.54 97.7414C246.27 104.487 250 113.454 250 123ZM81.1483 102.59H50.4668V152.774H61.8632V132.594H79.8864V123.357H61.8632V111.89H81.1642V102.582L81.1483 102.59ZM127.599 152.774C126.631 150.838 125.075 144.299 123.504 138.633C122.234 134.022 120.306 130.658 116.79 129.245V129.031C121.107 127.468 125.655 123.079 125.655 116.667C125.655 112.049 124.012 108.549 121.036 106.169C117.465 103.344 112.25 102.217 104.798 102.217C98.7589 102.217 93.3305 102.669 89.6798 103.264V152.774H100.925V133.046H104.362C108.981 133.126 111.139 134.84 112.473 141.101C113.965 147.275 115.155 151.377 115.965 152.79L127.599 152.774ZM165.852 143.474H145.202V131.554H163.677V122.318H145.202V111.89H164.812V102.582H133.821V152.766H165.852V143.474ZM205.597 143.474H184.962V131.554H203.43V122.318H184.962V111.89H204.557V102.582H173.582V152.766H205.597V143.474Z" fill="white"/>
</g>
<defs>
<filter id="filter0_d" x="0" y="0" width="254" height="258" filterUnits="userSpaceOnUse" color-interpolation-filters="sRGB">
<feFlood flood-opacity="0" result="BackgroundImageFix"/>
<feColorMatrix in="SourceAlpha" type="matrix" values="0 0 0 0 0 0 0 0 0 0 0 0 0 0 0 0 0 0 127 0"/>
<feOffset dy="8"/>
<feGaussianBlur stdDeviation="2"/>
<feColorMatrix type="matrix" values="0 0 0 0 0 0 0 0 0 0 0 0 0 0 0 0 0 0 0.25 0"/>
<feBlend mode="normal" in2="BackgroundImageFix" result="effect1_dropShadow"/>
<feBlend mode="normal" in="SourceGraphic" in2="effect1_dropShadow" result="shape"/>
</filter>
</defs>
</svg>
