<svg width="361" height="104" viewBox="0 0 361 104" fill="none" xmlns="http://www.w3.org/2000/svg">
<g filter="url(#filter0_d)">
<path d="M85.5051 72.66C81.5818 72.66 78.0251 71.8167 74.8351 70.13C71.6818 68.4067 69.1885 66.0417 67.3551 63.035C65.5585 59.9917 64.6601 56.5633 64.6601 52.75C64.6601 48.9367 65.5585 45.5267 67.3551 42.52C69.1885 39.4767 71.6818 37.1117 74.8351 35.425C78.0251 33.7017 81.6001 32.84 85.5601 32.84C88.8968 32.84 91.9035 33.4267 94.5801 34.6C97.2935 35.7733 99.5668 37.46 101.4 39.66L95.6801 44.94C93.0768 41.9333 89.8501 40.43 86.0001 40.43C83.6168 40.43 81.4901 40.9617 79.6201 42.025C77.7501 43.0517 76.2835 44.5 75.2201 46.37C74.1935 48.24 73.6801 50.3667 73.6801 52.75C73.6801 55.1333 74.1935 57.26 75.2201 59.13C76.2835 61 77.7501 62.4667 79.6201 63.53C81.4901 64.5567 83.6168 65.07 86.0001 65.07C89.8501 65.07 93.0768 63.5483 95.6801 60.505L101.4 65.785C99.5668 68.0217 97.2935 69.7267 94.5801 70.9C91.8668 72.0733 88.8418 72.66 85.5051 72.66ZM118.532 41.97C123.116 41.97 126.636 43.07 129.092 45.27C131.549 47.4333 132.777 50.715 132.777 55.115V72H124.747V68.315C123.134 71.065 120.127 72.44 115.727 72.44C113.454 72.44 111.474 72.055 109.787 71.285C108.137 70.515 106.872 69.4517 105.992 68.095C105.112 66.7383 104.672 65.1983 104.672 63.475C104.672 60.725 105.699 58.5617 107.752 56.985C109.842 55.4083 113.051 54.62 117.377 54.62H124.197C124.197 52.75 123.629 51.32 122.492 50.33C121.356 49.3033 119.651 48.79 117.377 48.79C115.801 48.79 114.242 49.0467 112.702 49.56C111.199 50.0367 109.916 50.6967 108.852 51.54L105.772 45.545C107.386 44.4083 109.311 43.5283 111.547 42.905C113.821 42.2817 116.149 41.97 118.532 41.97ZM117.872 66.665C119.339 66.665 120.641 66.335 121.777 65.675C122.914 64.9783 123.721 63.97 124.197 62.65V59.625H118.312C114.792 59.625 113.032 60.78 113.032 63.09C113.032 64.19 113.454 65.07 114.297 65.73C115.177 66.3533 116.369 66.665 117.872 66.665ZM150.498 72.44C148.041 72.44 145.639 72.1467 143.293 71.56C140.946 70.9367 139.076 70.1667 137.683 69.25L140.543 63.09C141.863 63.9333 143.458 64.63 145.328 65.18C147.198 65.6933 149.031 65.95 150.828 65.95C154.458 65.95 156.273 65.0517 156.273 63.255C156.273 62.4117 155.778 61.8067 154.788 61.44C153.798 61.0733 152.276 60.7617 150.223 60.505C147.803 60.1383 145.804 59.7167 144.228 59.24C142.651 58.7633 141.276 57.92 140.103 56.71C138.966 55.5 138.398 53.7767 138.398 51.54C138.398 49.67 138.929 48.02 139.993 46.59C141.093 45.1233 142.669 43.9867 144.723 43.18C146.813 42.3733 149.269 41.97 152.093 41.97C154.183 41.97 156.254 42.2083 158.308 42.685C160.398 43.125 162.121 43.7483 163.478 44.555L160.618 50.66C158.014 49.1933 155.173 48.46 152.093 48.46C150.259 48.46 148.884 48.7167 147.968 49.23C147.051 49.7433 146.593 50.4033 146.593 51.21C146.593 52.1267 147.088 52.7683 148.078 53.135C149.068 53.5017 150.644 53.85 152.808 54.18C155.228 54.5833 157.208 55.0233 158.748 55.5C160.288 55.94 161.626 56.765 162.763 57.975C163.899 59.185 164.468 60.8717 164.468 63.035C164.468 64.8683 163.918 66.5 162.818 67.93C161.718 69.36 160.104 70.4783 157.978 71.285C155.888 72.055 153.394 72.44 150.498 72.44ZM187.746 41.97C191.413 41.97 194.365 43.07 196.601 45.27C198.875 47.47 200.011 50.7333 200.011 55.06V72H191.431V56.38C191.431 54.0333 190.918 52.2917 189.891 51.155C188.865 49.9817 187.38 49.395 185.436 49.395C183.273 49.395 181.55 50.0733 180.266 51.43C178.983 52.75 178.341 54.73 178.341 57.37V72H169.761V31.19H178.341V45.49C179.478 44.3533 180.853 43.4917 182.466 42.905C184.08 42.2817 185.84 41.97 187.746 41.97ZM208.394 33.5H225.884C230.064 33.5 233.749 34.3067 236.939 35.92C240.165 37.4967 242.659 39.7333 244.419 42.63C246.215 45.5267 247.114 48.9 247.114 52.75C247.114 56.6 246.215 59.9733 244.419 62.87C242.659 65.7667 240.165 68.0217 236.939 69.635C233.749 71.2117 230.064 72 225.884 72H208.394V33.5ZM225.444 64.685C229.294 64.685 232.355 63.6217 234.629 61.495C236.939 59.3317 238.094 56.4167 238.094 52.75C238.094 49.0833 236.939 46.1867 234.629 44.06C232.355 41.8967 229.294 40.815 225.444 40.815H217.304V64.685H225.444ZM261.423 46.315C262.45 44.885 263.825 43.8033 265.548 43.07C267.308 42.3367 269.325 41.97 271.598 41.97V49.89C270.645 49.8167 270.003 49.78 269.673 49.78C267.216 49.78 265.291 50.4767 263.898 51.87C262.505 53.2267 261.808 55.28 261.808 58.03V72H253.228V42.41H261.423V46.315ZM290.511 72.44C287.395 72.44 284.59 71.7983 282.096 70.515C279.64 69.195 277.715 67.38 276.321 65.07C274.928 62.76 274.231 60.1383 274.231 57.205C274.231 54.2717 274.928 51.65 276.321 49.34C277.715 47.03 279.64 45.2333 282.096 43.95C284.59 42.63 287.395 41.97 290.511 41.97C293.628 41.97 296.415 42.63 298.871 43.95C301.328 45.2333 303.253 47.03 304.646 49.34C306.04 51.65 306.736 54.2717 306.736 57.205C306.736 60.1383 306.04 62.76 304.646 65.07C303.253 67.38 301.328 69.195 298.871 70.515C296.415 71.7983 293.628 72.44 290.511 72.44ZM290.511 65.4C292.711 65.4 294.508 64.6667 295.901 63.2C297.331 61.6967 298.046 59.6983 298.046 57.205C298.046 54.7117 297.331 52.7317 295.901 51.265C294.508 49.7617 292.711 49.01 290.511 49.01C288.311 49.01 286.496 49.7617 285.066 51.265C283.636 52.7317 282.921 54.7117 282.921 57.205C282.921 59.6983 283.636 61.6967 285.066 63.2C286.496 64.6667 288.311 65.4 290.511 65.4ZM329.961 41.97C332.711 41.97 335.205 42.6117 337.441 43.895C339.715 45.1417 341.493 46.92 342.776 49.23C344.06 51.5033 344.701 54.1617 344.701 57.205C344.701 60.2483 344.06 62.925 342.776 65.235C341.493 67.5083 339.715 69.2867 337.441 70.57C335.205 71.8167 332.711 72.44 329.961 72.44C326.185 72.44 323.215 71.2483 321.051 68.865V82.67H312.471V42.41H320.666V45.82C322.793 43.2533 325.891 41.97 329.961 41.97ZM328.476 65.4C330.676 65.4 332.473 64.6667 333.866 63.2C335.296 61.6967 336.011 59.6983 336.011 57.205C336.011 54.7117 335.296 52.7317 333.866 51.265C332.473 49.7617 330.676 49.01 328.476 49.01C326.276 49.01 324.461 49.7617 323.031 51.265C321.638 52.7317 320.941 54.7117 320.941 57.205C320.941 59.6983 321.638 61.6967 323.031 63.2C324.461 64.6667 326.276 65.4 328.476 65.4Z" fill="white"/>
</g>
<path d="M47.9989 58.6805C48.1227 71.4322 37.8275 81.8712 25 82C12.172 81.8712 1.87672 71.4322 2.00112 58.6805C2.00112 45.8006 25 14 25 14C25 14 47.9989 45.8006 47.9989 58.6805Z" fill="white"/>
<path d="M27.3795 72V69.4924H29.803C33.7986 69.4226 37 66.2384 37 62.3345C37 58.4306 33.7986 55.2464 29.803 55.176H20.197C18.8392 55.0954 17.7806 53.9965 17.7806 52.6678C17.7806 51.3391 18.8392 50.2396 20.197 50.159H34.6045V45.5093H27.3795V43H22.6199V45.5093H20.197C16.2014 45.5797 13 48.7639 13 52.6678C13 56.5711 16.2014 59.7553 20.197 59.8257H29.803C31.1608 59.9069 32.2194 61.0057 32.2194 62.3345C32.2194 63.6632 31.1608 64.7621 29.803 64.8427H15.3955V69.4924H22.6199V72H27.3795Z" fill="black"/>
<path d="M26.8895 11.9814C26.4523 11.3651 25.7494 11 25.0006 11C24.2511 11 23.5483 11.3651 23.1117 11.9814C22.1686 13.3129 0.000657471 44.7413 0.000657471 58.3016C-0.0924541 71.4975 9.71493 82.6122 22.6745 84V79.2501C12.2999 77.8864 4.5637 68.8943 4.6517 58.3016C4.6517 49.2003 17.9474 27.8068 25 17.4562C32.0532 27.8057 45.3483 49.1957 45.3483 58.3016C45.4357 68.8943 37.6995 77.8864 27.3255 79.2501V84C40.2851 82.6127 50.0925 71.4975 49.9993 58.3016C49.9993 44.7413 27.832 13.3129 26.8895 11.9814Z" fill="#282828"/>
<defs>
<filter id="filter0_d" x="60.6601" y="31.19" width="288.041" height="59.48" filterUnits="userSpaceOnUse" color-interpolation-filters="sRGB">
<feFlood flood-opacity="0" result="BackgroundImageFix"/>
<feColorMatrix in="SourceAlpha" type="matrix" values="0 0 0 0 0 0 0 0 0 0 0 0 0 0 0 0 0 0 127 0"/>
<feOffset dy="4"/>
<feGaussianBlur stdDeviation="2"/>
<feColorMatrix type="matrix" values="0 0 0 0 0 0 0 0 0 0 0 0 0 0 0 0 0 0 0.25 0"/>
<feBlend mode="normal" in2="BackgroundImageFix" result="effect1_dropShadow"/>
<feBlend mode="normal" in="SourceGraphic" in2="effect1_dropShadow" result="shape"/>
</filter>
</defs>
</svg>
