<svg height="496pt" viewBox="-76 0 496 496.00305" width="496pt" xmlns="http://www.w3.org/2000/svg"><path d="m328.007812 321.273438c.839844 87.011718-68.992187 158.242187-156 159.121093-87.011718-.878906-156.84375-72.109375-156-159.121093 0-87.886719 156-304.878907 156-304.878907s156 216.992188 156 304.878907zm0 0" fill="#4370ff"/><path d="m188.007812 414.707031v-17.257812h16.292969c26.863281-.480469 48.386719-22.394531 48.386719-49.261719s-21.523438-48.78125-48.386719-49.265625h-64.582031c-9.128906-.554687-16.246094-8.117187-16.246094-17.261719 0-9.144531 7.117188-16.710937 16.246094-17.265625h96.863281v-32h-48.574219v-17.269531h-32v17.269531h-16.289062c-26.863281.484375-48.386719 22.398438-48.386719 49.265625 0 26.863282 21.523438 48.777344 48.386719 49.261719h64.582031c9.128907.558594 16.246094 8.121094 16.246094 17.265625s-7.117187 16.707031-16.246094 17.261719h-96.863281v32h48.570312v17.257812zm0 0"/><path d="m185.007812 6.667969c-3.007812-4.1875-7.84375-6.667969-12.996093-6.667969-5.15625 0-9.992188 2.480469-12.996094 6.667969-6.488281 9.046875-159.0078125 222.589843-159.0078125 314.726562-.6406245 89.660157 66.8359375 165.179688 155.9999995 174.609375v-32.273437c-71.378906-9.265625-124.605468-70.363281-124-142.335938 0-61.839843 91.476563-207.199219 140-277.527343 48.527344 70.320312 140 215.65625 140 277.527343.601563 71.972657-52.625 133.070313-124 142.335938v32.273437c89.164063-9.425781 156.640626-84.949218 156-174.609375 0-92.136719-152.515624-305.679687-159-314.726562zm0 0"/></svg>