<svg width="1888" height="470" viewBox="0 0 1888 470" fill="none" xmlns="http://www.w3.org/2000/svg">
<g clip-path="url(#clip0)">
<path d="M234.667 170.667C199.36 170.667 170.667 199.36 170.667 234.667C170.667 269.974 199.36 298.667 234.667 298.667C269.974 298.667 298.667 269.974 298.667 234.667C298.667 199.36 269.973 170.667 234.667 170.667Z" fill="white"/>
<path d="M234.667 74.667C128 74.667 36.907 141.013 0 234.667C36.907 328.32 128 394.667 234.667 394.667C341.44 394.667 432.427 328.32 469.334 234.667C432.427 141.013 341.44 74.667 234.667 74.667ZM234.667 341.333C175.787 341.333 128 293.546 128 234.666C128 175.786 175.787 128 234.667 128C293.547 128 341.334 175.787 341.334 234.667C341.334 293.547 293.547 341.333 234.667 341.333Z" fill="white"/>
</g>
<path d="M574.42 316.2C562.54 316.2 551.027 314.513 539.88 311.14C528.88 307.767 520.153 303.293 513.7 297.72L523.6 275.5C529.907 280.487 537.607 284.593 546.7 287.82C555.94 290.9 565.18 292.44 574.42 292.44C585.86 292.44 594.367 290.607 599.94 286.94C605.66 283.273 608.52 278.433 608.52 272.42C608.52 268.02 606.907 264.427 603.68 261.64C600.6 258.707 596.64 256.433 591.8 254.82C586.96 253.207 580.36 251.373 572 249.32C560.267 246.533 550.733 243.747 543.4 240.96C536.213 238.173 529.98 233.847 524.7 227.98C519.567 221.967 517 213.9 517 203.78C517 195.273 519.273 187.573 523.82 180.68C528.513 173.64 535.48 168.067 544.72 163.96C554.107 159.853 565.547 157.8 579.04 157.8C588.427 157.8 597.667 158.973 606.76 161.32C615.853 163.667 623.7 167.04 630.3 171.44L621.28 193.66C614.533 189.7 607.493 186.693 600.16 184.64C592.827 182.587 585.713 181.56 578.82 181.56C567.527 181.56 559.093 183.467 553.52 187.28C548.093 191.093 545.38 196.153 545.38 202.46C545.38 206.86 546.92 210.453 550 213.24C553.227 216.027 557.26 218.227 562.1 219.84C566.94 221.453 573.54 223.287 581.9 225.34C593.34 227.98 602.727 230.767 610.06 233.7C617.393 236.487 623.627 240.813 628.76 246.68C634.04 252.547 636.68 260.467 636.68 270.44C636.68 278.947 634.333 286.647 629.64 293.54C625.093 300.433 618.127 305.933 608.74 310.04C599.353 314.147 587.913 316.2 574.42 316.2ZM772.839 255.92C772.839 257.827 772.693 260.54 772.399 264.06H680.219C681.833 272.713 686.013 279.607 692.759 284.74C699.653 289.727 708.159 292.22 718.279 292.22C731.186 292.22 741.819 287.967 750.179 279.46L764.919 296.4C759.639 302.707 752.966 307.473 744.899 310.7C736.833 313.927 727.739 315.54 717.619 315.54C704.713 315.54 693.346 312.973 683.519 307.84C673.693 302.707 666.066 295.593 660.639 286.5C655.359 277.26 652.719 266.847 652.719 255.26C652.719 243.82 655.286 233.553 660.419 224.46C665.699 215.22 672.959 208.033 682.199 202.9C691.439 197.767 701.853 195.2 713.439 195.2C724.879 195.2 735.073 197.767 744.019 202.9C753.113 207.887 760.153 215 765.139 224.24C770.273 233.333 772.839 243.893 772.839 255.92ZM713.439 217.2C704.639 217.2 697.159 219.84 690.999 225.12C684.986 230.253 681.319 237.147 679.999 245.8H746.659C745.486 237.293 741.893 230.4 735.879 225.12C729.866 219.84 722.386 217.2 713.439 217.2ZM909.695 255.92C909.695 257.827 909.548 260.54 909.255 264.06H817.075C818.688 272.713 822.868 279.607 829.615 284.74C836.508 289.727 845.015 292.22 855.135 292.22C868.042 292.22 878.675 287.967 887.035 279.46L901.775 296.4C896.495 302.707 889.822 307.473 881.755 310.7C873.688 313.927 864.595 315.54 854.475 315.54C841.568 315.54 830.202 312.973 820.375 307.84C810.548 302.707 802.922 295.593 797.495 286.5C792.215 277.26 789.575 266.847 789.575 255.26C789.575 243.82 792.142 233.553 797.275 224.46C802.555 215.22 809.815 208.033 819.055 202.9C828.295 197.767 838.708 195.2 850.295 195.2C861.735 195.2 871.928 197.767 880.875 202.9C889.968 207.887 897.008 215 901.995 224.24C907.128 233.333 909.695 243.893 909.695 255.92ZM850.295 217.2C841.495 217.2 834.015 219.84 827.855 225.12C821.842 230.253 818.175 237.147 816.855 245.8H883.515C882.342 237.293 878.748 230.4 872.735 225.12C866.722 219.84 859.242 217.2 850.295 217.2ZM1062.91 160C1076.26 160 1087.84 162.2 1097.67 166.6C1107.64 171 1115.27 177.307 1120.55 185.52C1125.83 193.733 1128.47 203.487 1128.47 214.78C1128.47 225.927 1125.83 235.68 1120.55 244.04C1115.27 252.253 1107.64 258.56 1097.67 262.96C1087.84 267.36 1076.26 269.56 1062.91 269.56H1028.15V314H999.551V160H1062.91ZM1061.59 245.36C1074.06 245.36 1083.52 242.72 1089.97 237.44C1096.42 232.16 1099.65 224.607 1099.65 214.78C1099.65 204.953 1096.42 197.4 1089.97 192.12C1083.52 186.84 1074.06 184.2 1061.59 184.2H1028.15V245.36H1061.59ZM1179.5 213.68C1187.42 201.36 1201.35 195.2 1221.3 195.2V221.38C1218.95 220.94 1216.82 220.72 1214.92 220.72C1204.21 220.72 1195.85 223.873 1189.84 230.18C1183.82 236.34 1180.82 245.287 1180.82 257.02V314H1153.32V196.52H1179.5V213.68ZM1353.99 255.92C1353.99 257.827 1353.85 260.54 1353.55 264.06H1261.37C1262.99 272.713 1267.17 279.607 1273.91 284.74C1280.81 289.727 1289.31 292.22 1299.43 292.22C1312.34 292.22 1322.97 287.967 1331.33 279.46L1346.07 296.4C1340.79 302.707 1334.12 307.473 1326.05 310.7C1317.99 313.927 1308.89 315.54 1298.77 315.54C1285.87 315.54 1274.5 312.973 1264.67 307.84C1254.85 302.707 1247.22 295.593 1241.79 286.5C1236.51 277.26 1233.87 266.847 1233.87 255.26C1233.87 243.82 1236.44 233.553 1241.57 224.46C1246.85 215.22 1254.11 208.033 1263.35 202.9C1272.59 197.767 1283.01 195.2 1294.59 195.2C1306.03 195.2 1316.23 197.767 1325.17 202.9C1334.27 207.887 1341.31 215 1346.29 224.24C1351.43 233.333 1353.99 243.893 1353.99 255.92ZM1294.59 217.2C1285.79 217.2 1278.31 219.84 1272.15 225.12C1266.14 230.253 1262.47 237.147 1261.15 245.8H1327.81C1326.64 237.293 1323.05 230.4 1317.03 225.12C1311.02 219.84 1303.54 217.2 1294.59 217.2ZM1488.26 196.52L1437.88 314H1409.5L1359.12 196.52H1387.72L1424.24 283.64L1461.86 196.52H1488.26ZM1505.45 196.52H1532.95V314H1505.45V196.52ZM1519.31 177.16C1514.32 177.16 1510.14 175.62 1506.77 172.54C1503.39 169.313 1501.71 165.353 1501.71 160.66C1501.71 155.967 1503.39 152.08 1506.77 149C1510.14 145.773 1514.32 144.16 1519.31 144.16C1524.29 144.16 1528.47 145.7 1531.85 148.78C1535.22 151.713 1536.91 155.453 1536.91 160C1536.91 164.84 1535.22 168.947 1531.85 172.32C1528.62 175.547 1524.44 177.16 1519.31 177.16ZM1679.48 255.92C1679.48 257.827 1679.33 260.54 1679.04 264.06H1586.86C1588.47 272.713 1592.65 279.607 1599.4 284.74C1606.29 289.727 1614.8 292.22 1624.92 292.22C1637.83 292.22 1648.46 287.967 1656.82 279.46L1671.56 296.4C1666.28 302.707 1659.61 307.473 1651.54 310.7C1643.47 313.927 1634.38 315.54 1624.26 315.54C1611.35 315.54 1599.99 312.973 1590.16 307.84C1580.33 302.707 1572.71 295.593 1567.28 286.5C1562 277.26 1559.36 266.847 1559.36 255.26C1559.36 243.82 1561.93 233.553 1567.06 224.46C1572.34 215.22 1579.6 208.033 1588.84 202.9C1598.08 197.767 1608.49 195.2 1620.08 195.2C1631.52 195.2 1641.71 197.767 1650.66 202.9C1659.75 207.887 1666.79 215 1671.78 224.24C1676.91 233.333 1679.48 243.893 1679.48 255.92ZM1620.08 217.2C1611.28 217.2 1603.8 219.84 1597.64 225.12C1591.63 230.253 1587.96 237.147 1586.64 245.8H1653.3C1652.13 237.293 1648.53 230.4 1642.52 225.12C1636.51 219.84 1629.03 217.2 1620.08 217.2ZM1887.01 196.52L1843.67 314H1817.27L1786.91 233.04L1756.11 314H1729.71L1686.59 196.52H1712.55L1743.57 283.2L1775.91 196.52H1799.01L1830.69 283.64L1862.59 196.52H1887.01Z" fill="white"/>
<defs>
<clipPath id="clip0">
<rect width="469.333" height="469.333" fill="white"/>
</clipPath>
</defs>
</svg>
