<?xml version="1.0" encoding="iso-8859-1"?>
<!-- Generator: Adobe Illustrator 19.0.0, SVG Export Plug-In . SVG Version: 6.00 Build 0)  -->
<svg version="1.1" id="Capa_1" xmlns="http://www.w3.org/2000/svg" xmlns:xlink="http://www.w3.org/1999/xlink" x="0px" y="0px"
	 viewBox="0 0 512 512" style="enable-background:new 0 0 512 512;" xml:space="preserve">
<path style="fill:#303C42;" d="M256,0C114.844,0,0,114.844,0,256s114.844,256,256,256s256-114.844,256-256S397.156,0,256,0z"/>
<g>
	<path style="fill:#5C6671;" d="M490.667,256c0,10.246-0.884,20.268-2.164,30.172l-83.96-14.803c0.52-5.053,0.79-10.18,0.79-15.368
		c0-5.189-0.271-10.315-0.79-15.368l83.96-14.803C489.783,235.732,490.667,245.754,490.667,256z"/>
	<path style="fill:#5C6671;" d="M195.077,392.204l-29.254,80.388c-18.772-7.845-36.18-18.212-52.117-30.424l54.852-65.37
		C176.815,382.793,185.671,387.98,195.077,392.204z"/>
</g>
<path style="fill:#EF5350;" d="M215.116,399.504c9.711,2.771,19.815,4.548,30.217,5.289v85.333
	c-20.604-0.932-40.59-4.259-59.487-10.191L215.116,399.504z"/>
<path style="fill:#5C6671;" d="M266.667,404.793c10.402-0.741,20.507-2.518,30.217-5.289l29.27,80.431
	c-18.897,5.932-38.883,9.259-59.487,10.191V404.793z"/>
<path style="fill:#EF5350;" d="M316.923,392.204c9.406-4.224,18.262-9.411,26.52-15.406l54.852,65.37
	c-15.938,12.212-33.345,22.579-52.117,30.424L316.923,392.204z"/>
<circle style="fill:#6D4C41;" cx="256" cy="256" r="128"/>
<path style="opacity:0.1;enable-background:new    ;" d="M338.087,157.913C356.73,180.154,368,208.773,368,240
	c0,70.583-57.417,128-128,128c-31.227,0-59.846-11.27-82.087-29.913C181.411,366.12,216.643,384,256,384
	c70.583,0,128-57.417,128-128C384,216.643,366.12,181.411,338.087,157.913z"/>
<path style="fill:#EF5350;" d="M21.333,256c0-10.246,0.884-20.268,2.164-30.172l83.96,14.803c-0.52,5.053-0.79,10.18-0.79,15.368
	c0,5.189,0.271,10.315,0.79,15.368l-83.96,14.803C22.217,276.268,21.333,266.246,21.333,256z"/>
<g>
	<path style="fill:#5C6671;" d="M111.326,219.659l-84.198-14.845c4.466-19.978,11.479-38.975,20.693-56.685l74.01,42.73
		C117.38,199.987,113.852,209.612,111.326,219.659z"/>
	<path style="fill:#5C6671;" d="M111.326,292.341c2.526,10.047,6.055,19.672,10.505,28.799l-74.01,42.73
		c-9.214-17.71-16.227-36.707-20.693-56.685L111.326,292.341z"/>
</g>
<path style="fill:#EF5350;" d="M316.923,119.796l29.254-80.388c18.772,7.845,36.18,18.212,52.117,30.424l-54.852,65.37
	C335.185,129.207,326.329,124.02,316.923,119.796z"/>
<path style="fill:#5C6671;" d="M296.884,112.496c-9.711-2.771-19.815-4.548-30.217-5.289V21.874
	c20.604,0.932,40.59,4.259,59.487,10.191L296.884,112.496z"/>
<path style="fill:#7CB342;" d="M245.333,107.207c-10.402,0.741-20.507,2.518-30.217,5.289l-29.27-80.431
	c18.897-5.932,38.883-9.259,59.487-10.191V107.207z"/>
<path style="fill:#5C6671;" d="M195.077,119.796c-9.406,4.224-18.262,9.411-26.52,15.406l-54.852-65.37
	c15.938-12.212,33.345-22.579,52.117-30.424L195.077,119.796z"/>
<g>
	<path style="fill:#EF5350;" d="M390.169,190.859l74.01-42.73c9.214,17.71,16.227,36.707,20.693,56.685l-84.198,14.845
		C398.148,209.612,394.62,199.987,390.169,190.859z"/>
	<path style="fill:#EF5350;" d="M400.674,292.341l84.198,14.845c-4.466,19.978-11.479,38.975-20.693,56.685l-74.01-42.73
		C394.62,312.013,398.148,302.388,400.674,292.341z"/>
</g>
<path style="fill:#5C6671;" d="M453.453,129.684l-73.842,42.634c-5.772-8.5-12.451-16.316-19.805-23.444l54.807-65.315
	C429.44,97.207,442.522,112.656,453.453,129.684z"/>
<g>
	<path style="fill:#EF5350;" d="M97.387,83.559l54.807,65.315c-7.354,7.128-14.033,14.944-19.805,23.444l-73.842-42.634
		C69.478,112.656,82.56,97.207,97.387,83.559z"/>
	<path style="fill:#EF5350;" d="M58.547,382.316l73.842-42.634c5.772,8.5,12.451,16.316,19.805,23.444l-54.807,65.315
		C82.56,414.793,69.478,399.344,58.547,382.316z"/>
</g>
<path style="fill:#5C6671;" d="M414.613,428.441l-54.807-65.315c7.354-7.128,14.033-14.944,19.805-23.444l73.842,42.634
	C442.522,399.344,429.44,414.793,414.613,428.441z"/>
<path style="fill:#FFCA28;" d="M341.333,234.667c-7.792,0-14.329,4.409-18.053,10.667h-26.128
	c-3.879-14.922-15.564-26.607-30.486-30.486V188.72c6.258-3.724,10.667-10.262,10.667-18.053c0-11.76-9.573-21.333-21.333-21.333
	c-11.76,0-21.333,9.573-21.333,21.333c0,7.792,4.409,14.329,10.667,18.053v26.128c-14.922,3.879-26.607,15.564-30.486,30.486H188.72
	c-3.724-6.258-10.262-10.667-18.053-10.667c-11.76,0-21.333,9.573-21.333,21.333c0,11.76,9.573,21.333,21.333,21.333
	c7.792,0,14.329-4.409,18.053-10.667h26.128c3.879,14.922,15.564,26.607,30.486,30.486v26.128
	c-6.258,3.724-10.667,10.262-10.667,18.053c0,11.76,9.573,21.333,21.333,21.333c11.76,0,21.333-9.573,21.333-21.333
	c0-7.792-4.409-14.329-10.667-18.053v-26.128c14.922-3.879,26.607-15.564,30.486-30.486h26.128
	c3.724,6.258,10.262,10.667,18.053,10.667c11.76,0,21.333-9.573,21.333-21.333C362.667,244.24,353.094,234.667,341.333,234.667z"/>
<circle style="fill:#303C42;" cx="256" cy="256" r="21.333"/>
<linearGradient id="SVGID_1_" gradientUnits="userSpaceOnUse" x1="-34.7384" y1="638.4365" x2="-30.7484" y2="634.4565" gradientTransform="matrix(21.3333 0 0 -21.3333 996.3334 13791.667)">
	<stop  offset="0" style="stop-color:#000000;stop-opacity:0.1"/>
	<stop  offset="1" style="stop-color:#000000;stop-opacity:0"/>
</linearGradient>
<path style="fill:url(#SVGID_1_);" d="M297.152,245.333h26.128c3.724-6.258,10.262-10.667,18.053-10.667
	c5.822,0,11.087,2.368,14.94,6.164l-85.104-85.104c3.796,3.853,6.164,9.118,6.164,14.94c0,7.792-4.409,14.329-10.667,18.053v26.128
	C281.589,218.727,293.273,230.411,297.152,245.333z"/>
<linearGradient id="SVGID_2_" gradientUnits="userSpaceOnUse" x1="-34.0182" y1="639.2083" x2="-34.0042" y2="639.1943" gradientTransform="matrix(21.3333 0 0 -21.3333 996.3334 13791.667)">
	<stop  offset="0" style="stop-color:#000000;stop-opacity:0.1"/>
	<stop  offset="1" style="stop-color:#000000;stop-opacity:0"/>
</linearGradient>
<path style="fill:url(#SVGID_2_);" d="M270.94,155.497l-0.303-0.303l-0.022,0.085C270.71,155.37,270.848,155.405,270.94,155.497z"/>
<linearGradient id="SVGID_3_" gradientUnits="userSpaceOnUse" x1="-38.6077" y1="634.4656" x2="-34.6773" y2="630.5431" gradientTransform="matrix(21.3333 0 0 -21.3333 996.3334 13791.667)">
	<stop  offset="0" style="stop-color:#000000;stop-opacity:0.1"/>
	<stop  offset="1" style="stop-color:#000000;stop-opacity:0"/>
</linearGradient>
<path style="fill:url(#SVGID_3_);" d="M234.667,341.333c0-7.792,4.409-14.329,10.667-18.053v-26.128
	c-14.922-3.879-26.607-15.564-30.486-30.486H188.72c-3.724,6.258-10.262,10.667-18.053,10.667c-5.199,0-9.801-2.092-13.507-5.197
	l-0.271,0.109l83.764,83.764C236.99,352.178,234.667,347.04,234.667,341.333z"/>
<path style="opacity:0.1;enable-background:new    ;" d="M32,277.333c0-16.839,1.866-33.237,5.253-49.079l-13.755-2.426
	c-1.28,9.904-2.164,19.926-2.164,30.172s0.884,20.268,2.164,30.172l8.915-1.572C32.337,282.161,32,279.79,32,277.333z
	 M27.128,204.814l15.473,2.728c5.469-17.52,13.151-34.02,22.355-49.52l-17.135-9.893C38.607,165.839,31.594,184.836,27.128,204.814z
	 M27.128,307.186c4.466,19.978,11.479,38.975,20.693,56.685l0.867-0.5c-7.201-18.165-12.391-37.323-14.848-57.368L27.128,307.186z
	 M340.563,54.836c17.836,5.952,34.725,13.928,50.368,23.771l7.363-8.775c-15.938-12.212-33.345-22.579-52.117-30.424L340.563,54.836
	z M266.667,42.667c18.37,0,36.156,2.353,53.311,6.367l6.176-16.969c-18.897-5.932-38.883-9.259-59.487-10.191V42.667z
	 M193.952,54.339c16.421-5.37,33.604-8.979,51.382-10.591V21.874c-20.604,0.932-40.59,4.259-59.487,10.191L193.952,54.339z
	 M113.706,69.832l15.111,18.009c14.007-10.219,29.063-19.06,45.165-26.013l-8.159-22.421
	C147.051,47.253,129.643,57.62,113.706,69.832z M464.18,148.129l-1.633,0.943c2.176,3.32,4.453,6.57,6.462,10.005
	C467.352,155.451,466.014,151.655,464.18,148.129z M408.508,90.835c15.484,11.837,29.366,25.585,41.482,40.849l3.464-2
	c-10.931-17.027-24.013-32.477-38.84-46.125L408.508,90.835z M58.547,129.684l18.129,10.466
	c10.353-14.297,22.245-27.362,35.483-38.987L97.387,83.559C82.56,97.207,69.478,112.656,58.547,129.684z"/>
<path style="opacity:0.1;enable-background:new    ;" d="M264.715,151.285c1.206,2.673,1.952,5.591,1.952,8.715
	c0,11.781-9.551,21.333-21.333,21.333c-3.124,0-6.042-0.747-8.715-1.953C239.962,186.792,247.341,192,256,192
	c11.783,0,21.333-9.552,21.333-21.333C277.333,162.008,272.126,154.629,264.715,151.285z"/>
<path style="opacity:0.1;enable-background:new    ;" d="M350.048,236.618c1.206,2.673,1.952,5.591,1.952,8.715
	c0,11.781-9.551,21.333-21.333,21.333c-3.124,0-6.042-0.747-8.715-1.953c3.344,7.411,10.723,12.62,19.382,12.62
	c11.783,0,21.333-9.552,21.333-21.333C362.667,247.341,357.46,239.962,350.048,236.618z"/>
<path style="opacity:0.1;enable-background:new    ;" d="M264.715,321.952c1.206,2.673,1.952,5.591,1.952,8.715
	c0,11.781-9.551,21.333-21.333,21.333c-3.124,0-6.042-0.747-8.715-1.953c3.344,7.411,10.723,12.62,19.382,12.62
	c11.783,0,21.333-9.552,21.333-21.333C277.333,332.674,272.126,325.296,264.715,321.952z"/>
<path style="opacity:0.1;enable-background:new    ;" d="M179.382,236.618c1.206,2.673,1.952,5.591,1.952,8.715
	c0,11.781-9.551,21.333-21.333,21.333c-3.124,0-6.042-0.747-8.715-1.953c3.344,7.411,10.723,12.62,19.382,12.62
	c11.783,0,21.333-9.552,21.333-21.333C192,247.341,186.793,239.962,179.382,236.618z"/>
<linearGradient id="SVGID_4_" gradientUnits="userSpaceOnUse" x1="-45.5784" y1="639.555" x2="-23.8278" y2="629.4138" gradientTransform="matrix(21.3333 0 0 -21.3333 996.3334 13791.667)">
	<stop  offset="0" style="stop-color:#FFFFFF;stop-opacity:0.2"/>
	<stop  offset="1" style="stop-color:#FFFFFF;stop-opacity:0"/>
</linearGradient>
<path style="fill:url(#SVGID_4_);" d="M256,0C114.844,0,0,114.844,0,256s114.844,256,256,256s256-114.844,256-256S397.156,0,256,0z"
	/>
<g>
</g>
<g>
</g>
<g>
</g>
<g>
</g>
<g>
</g>
<g>
</g>
<g>
</g>
<g>
</g>
<g>
</g>
<g>
</g>
<g>
</g>
<g>
</g>
<g>
</g>
<g>
</g>
<g>
</g>
</svg>
