<svg width="384" height="384" viewBox="0 0 384 384" fill="none" xmlns="http://www.w3.org/2000/svg">
<path d="M213.334 213.333H170.667V256H213.334V213.333Z" fill="white"/>
<path d="M341.333 0H42.667C19.093 0 0 19.093 0 42.667V341.334C0 364.907 19.093 384 42.667 384H341.334C364.907 384 384 364.907 384 341.333V42.667C384 19.093 364.907 0 341.333 0ZM256 128H170.667V170.667H213.334C236.907 170.667 256.001 189.76 256.001 213.334V256C256.001 279.573 236.908 298.667 213.334 298.667H170.667C147.093 298.667 128 279.573 128 256V128C128 104.427 147.093 85.333 170.667 85.333H256V128Z" fill="white"/>
</svg>
