<svg width="384" height="384" viewBox="0 0 384 384" fill="none" xmlns="http://www.w3.org/2000/svg">
<path d="M341.333 0H42.667C19.093 0 0 19.093 0 42.667V341.334C0 364.907 19.093 384 42.667 384H341.334C364.907 384 384 364.907 384 341.333V42.667C384 19.093 364.907 0 341.333 0ZM256 160C256 177.707 241.707 192 224 192C241.707 192 256 206.293 256 224V256C256 279.573 236.907 298.667 213.333 298.667H128V256H213.333V213.333H170.666V170.666H213.333V128H128V85.333H213.333C236.907 85.333 256 104.427 256 128V160Z" fill="white"/>
</svg>
