<svg width="384" height="384" viewBox="0 0 384 384" fill="none" xmlns="http://www.w3.org/2000/svg">
<path d="M341.333 0H42.667C19.093 0 0 19.093 0 42.667V341.334C0 364.907 19.093 384 42.667 384H341.334C364.907 384 384 364.907 384 341.333V42.667C384 19.093 364.907 0 341.333 0ZM256 170.667C256 194.24 236.907 213.334 213.333 213.334H170.666V256H256V298.667H128V213.334C128 189.761 147.093 170.667 170.667 170.667H213.334V128H128V85.333H213.333C236.907 85.333 256 104.427 256 128V170.667Z" fill="white"/>
</svg>
