<svg width="50" height="73" viewBox="0 0 50 73" fill="none" xmlns="http://www.w3.org/2000/svg">
<path d="M47.9989 47.6805C48.1227 60.4322 37.8275 70.8712 25 71C12.172 70.8712 1.87672 60.4322 2.00112 47.6805C2.00112 34.8006 25 3 25 3C25 3 47.9989 34.8006 47.9989 47.6805Z" fill="white"/>
<path d="M27.3795 61V58.4924H29.803C33.7986 58.4226 37 55.2384 37 51.3345C37 47.4306 33.7986 44.2464 29.803 44.176H20.197C18.8392 44.0954 17.7806 42.9965 17.7806 41.6678C17.7806 40.3391 18.8392 39.2396 20.197 39.159H34.6045V34.5093H27.3795V32H22.6199V34.5093H20.197C16.2014 34.5797 13 37.7639 13 41.6678C13 45.5711 16.2014 48.7553 20.197 48.8257H29.803C31.1608 48.9069 32.2194 50.0057 32.2194 51.3345C32.2194 52.6632 31.1608 53.7621 29.803 53.8427H15.3955V58.4924H22.6199V61H27.3795Z" fill="black"/>
<path d="M26.8895 0.981367C26.4523 0.365066 25.7494 0 25.0006 0C24.2511 0 23.5483 0.365066 23.1117 0.981367C22.1686 2.31285 0.000657471 33.7413 0.000657471 47.3016C-0.0924541 60.4975 9.71493 71.6122 22.6745 73V68.2501C12.2999 66.8864 4.5637 57.8943 4.6517 47.3016C4.6517 38.2003 17.9474 16.8068 25 6.45621C32.0532 16.8057 45.3483 38.1957 45.3483 47.3016C45.4357 57.8943 37.6995 66.8864 27.3255 68.2501V73C40.2851 71.6127 50.0925 60.4975 49.9993 47.3016C49.9993 33.7413 27.832 2.31285 26.8895 0.981367Z" fill="#282828"/>
</svg>
