<svg xmlns="http://www.w3.org/2000/svg" width="178" height="58" viewBox="0 0 178 58">
    <defs>
        <linearGradient id="a" x1="223.568%" x2="46.337%" y1="50%" y2="50%">
            <stop offset="0%" stop-color="#FFF" stop-opacity="0"/>
            <stop offset="100%" stop-color="#FFF"/>
        </linearGradient>
        <linearGradient id="b" x1="-115.34%" x2="46.891%" y1="50%" y2="50%">
            <stop offset="0%" stop-color="#FFF" stop-opacity="0"/>
            <stop offset="100%" stop-color="#FFF"/>
        </linearGradient>
        <linearGradient id="c" x1="49.22%" x2="50%" y1="185.434%" y2="25.417%">
            <stop offset="0%" stop-color="#FFF" stop-opacity="0"/>
            <stop offset="100%" stop-color="#FFF"/>
        </linearGradient>
        <linearGradient id="d" x1="97.618%" x2="41.217%" y1="-50.596%" y2="37.138%">
            <stop offset="0%" stop-color="#FFF" stop-opacity="0"/>
            <stop offset="100%" stop-color="#FFF"/>
        </linearGradient>
        <linearGradient id="e" x1="243.576%" x2="21.189%" y1="-38.35%" y2="87.745%">
            <stop offset="0%" stop-color="#FFF" stop-opacity="0"/>
            <stop offset="100%" stop-color="#FFF"/>
        </linearGradient>
        <linearGradient id="f" x1="235.837%" x2="13.551%" y1="12.188%" y2="58.504%">
            <stop offset="0%" stop-color="#FFF" stop-opacity="0"/>
            <stop offset="100%" stop-color="#FFF"/>
        </linearGradient>
        <linearGradient id="g" x1="78.988%" x2="50%" y1="-87.621%" y2="57.425%">
            <stop offset="0%" stop-color="#FFF" stop-opacity="0"/>
            <stop offset="100%" stop-color="#FFF"/>
        </linearGradient>
        <linearGradient id="h" x1="164.317%" x2="46.542%" y1="84.525%" y2="47.173%">
            <stop offset="0%" stop-color="#FFF" stop-opacity="0"/>
            <stop offset="100%" stop-color="#FFF"/>
        </linearGradient>
    </defs>
    <g fill="none" fill-rule="evenodd">
        <rect width="177.6" height="57.6" fill="#1FD3C6" rx="4.8"/>
        <path fill="url(#a)" d="M44.176.147c.434.094.83.21 1.177.346 1.057.415 1.728 1.031 1.966 1.838.417 1.424-.573 3.223-1.095 3.881-.15.188-.324.403-.521.645H35.088c-1.76 0-3.194-1.504-3.194-3.354S33.328.147 35.088.147h9.088z" transform="translate(13.875 14.4)"/>
        <path fill="#FFF" d="M58.448 22.614c.666-.794 1.254-1.503 1.651-2.002.522-.658 1.512-2.456 1.094-3.881-.237-.807-.908-1.424-1.965-1.838a7.74 7.74 0 0 0-1.177-.346h6.182c1.986 0 3.101 1.38 3.101 1.38 3.05 3.387-1.904 8.424-1.904 8.424L55.367 36.12c-.258.314-.49.594-.675.828-.522.658-1.508 2.457-1.094 3.881.237.81.908 1.424 1.965 1.84.347.136.744.252 1.177.345h-6.183c-1.986 0-3.1-1.38-3.1-1.38-3.05-3.389 1.904-8.423 1.904-8.423l9.087-10.597z"/>
        <path fill="url(#b)" d="M42.865 28.614a7.578 7.578 0 0 1-1.177-.345c-1.057-.417-1.728-1.031-1.965-1.84-.414-1.424.572-3.223 1.094-3.881.15-.186.325-.404.526-.643l10.614-.003c1.76 0 3.19 1.507 3.19 3.357 0 1.85-1.43 3.354-3.19 3.355h-9.092z" transform="translate(13.875 14.4)"/>
        <path fill="url(#c)" d="M68.187 3.624A3.558 3.558 0 0 0 64.626.146a3.558 3.558 0 0 0-3.566 3.552v21.36c-.021-3.055 1.615-5.502 3.179-8.447 3.354-6.315 3.901-12.409 3.948-12.987" transform="translate(13.875 14.4)"/>
        <path fill="#FFF" d="M82.062 18.024c-.047.578-.594 6.672-3.948 12.987-1.564 2.945-3.2 5.392-3.18 8.448a3.557 3.557 0 0 0 3.567 3.552 3.56 3.56 0 0 0 3.566-3.552l-.005-8.762V18.024z"/>
        <path fill="url(#d)" d="M91.708 12.103l-.001-.034c-.014-5.325-3.37-10.877-10.646-10.393.006-.003 0 0 0 0-3.658 2.053-6.14 5.957-6.14 10.427v12.904a3.618 3.618 0 0 0 3.623 3.609 3.616 3.616 0 0 0 3.622-3.609V12.103c0-2.616 2.137-4.747 4.768-4.747 2.626 0 4.764 2.13 4.764 4.747" transform="translate(13.875 14.4)"/>
        <path fill="url(#e)" d="M108.482 12.103c0-.01-.003-.021-.003-.034-.011-5.323-3.37-10.877-10.645-10.393a12.206 12.206 0 0 0-2.514 1.876 11.915 11.915 0 0 1 3.623 8.517v.026c.006-2.614 2.142-4.74 4.766-4.74 2.629 0 4.765 2.132 4.765 4.748" transform="translate(13.875 14.4)"/>
        <path fill="#FFF" d="M111.71 16.076c7.275-.484 10.633 5.07 10.644 10.393 0 .013.004.023.004.034l-.004 12.64v.27a3.602 3.602 0 0 0 3.602 3.603h.016a3.617 3.617 0 0 0 3.621-3.609V26.503c0-.01-.003-.021-.003-.034-.017-6.58-5.399-11.928-12.009-11.93-.315-.01-3.201-.01-5.872 1.537M109.195 17.952a11.915 11.915 0 0 1 3.622 8.517v12.938c0 .252-.024.499-.073.735a3.613 3.613 0 0 1-3.545 2.874c-.493 0-.965-.1-1.391-.278h-.006c-.001-.002-.005-.002-.005-.002a3.6 3.6 0 0 1-2.219-3.239c.004-.03.005-12.994.005-12.994l-.001-.034c-.014-5.325-3.37-10.877-10.646-10.393 0 0 1.27-.789 3.158-1.226 2.849-.661 7.396-.494 11.1 3.102"/>
        <path fill="url(#f)" d="M139.07 24.96a10.84 10.84 0 0 1-10.565-8.4 7.142 7.142 0 0 1-.34-2.18c0-3.974 3.242-7.201 7.233-7.201a7.234 7.234 0 0 1 7.081 5.744c-.784-5.19-5.288-9.178-10.712-9.178-5.543 0-10.123 4.166-10.755 9.52-.03.37-.05.74-.05 1.115 0 7.928 6.477 14.38 14.436 14.38 7.377 0 13.48-5.544 14.33-12.668-.912 5.037-5.346 8.869-10.658 8.869" transform="translate(13.875 14.4)"/>
        <path fill="#FFF" d="M149.273 14.4c-7.584 0-13.816 5.855-14.385 13.265.63-5.354 5.211-9.52 10.755-9.52 5.423 0 9.927 3.988 10.711 9.178.1.47.151.958.151 1.454 0 3.976-3.246 7.207-7.232 7.207a7.24 7.24 0 0 1-6.893-5.025 10.841 10.841 0 0 0 10.564 8.402c5.313 0 9.747-3.831 10.659-8.87.018-.143.034-.287.05-.436.033-.422.053-.846.053-1.278 0-7.928-6.473-14.377-14.433-14.377"/>
        <path fill="url(#g)" d="M6.344 27.1l7.839-19.986-1.069-2.725a7.375 7.375 0 0 0-.825-1.413c-1.75-2.02-2.916-1.049-3.22-.721 0 0-.237.233-.567 1.068L.389 23.998s-1.274 2.377 1.115 4.163c0 0 1.058.771 2.354.563.933-.15 1.79-.614 2.311-1.37 0 0 .15-.188.175-.255" transform="translate(13.875 14.4)"/>
        <path fill="url(#h)" d="M17.87 16.513c-.625-.155-4.345-1.018-8.517.314C2.908 18.885.39 23.997.39 23.997s-1.275 2.378 1.114 4.164c0 0 1.059.771 2.354.563.933-.149 1.79-.614 2.311-1.37.924-1.336 1.518-2.66 3.932-3.942 2.338-1.244 5.573-1.407 8.071-.044 2.823 1.54 3.638 3.319 3.802 3.613h.003L17.87 16.512z" transform="translate(13.875 14.4)"/>
        <path fill="#FFF" d="M38.807 43.152c1.764.031 3.405-1.431 3.375-3.295-.01-.519-.088-.74-.192-1.09l-8.209-20.941-.207-.447c-1.15-2.424-3.59-2.979-5.49-2.979-3.731 0-4.959 2.007-5.14 2.254.304-.327 1.47-1.298 3.22.723.284.388.553.804.826 1.412l8.865 22.6s.78 1.722 2.952 1.763"/>
    </g>
</svg>
