<?xml version="1.0" encoding="UTF-8"?>
<!DOCTYPE svg PUBLIC "-//W3C//DTD SVG 1.1//EN" "http://www.w3.org/Graphics/SVG/1.1/DTD/svg11.dtd">
<!-- Creator: CorelDRAW 2017 -->
<svg xmlns="http://www.w3.org/2000/svg" xml:space="preserve" width="35.587in" height="11.486in" version="1.1" style="shape-rendering:geometricPrecision; text-rendering:geometricPrecision; image-rendering:optimizeQuality; fill-rule:evenodd; clip-rule:evenodd"
viewBox="0 0 36722.47 11852.48"
 xmlns:xlink="http://www.w3.org/1999/xlink">
 <defs>
  <style type="text/css">
   <![CDATA[
    .fil4 {fill:none}
    .fil3 {fill:#57A7B9}
    .fil0 {fill:#0F1B1D;fill-rule:nonzero}
    .fil2 {fill:#73CDDD;fill-rule:nonzero}
    .fil1 {fill:white;fill-rule:nonzero}
   ]]>
  </style>
 </defs>
 <g id="__x0023_Layer_x0020_1">
  <metadata id="CorelCorpID_0Corel-Layer"/>
  <g id="_2120793646896">
   <g>
    <g>
     <path class="fil0" d="M18177.3 5825.12c346.09,-193.81 636.79,-498.37 636.79,-1045.17l0 -13.85c0,-332.24 -110.75,-602.17 -332.24,-823.66 -276.86,-276.87 -712.93,-429.15 -1266.67,-429.15l-1716.56 0c-297.63,0 -532.97,235.34 -532.97,532.98l0 1427.48 -696.83 0c-243.27,0 -441.75,198.46 -441.75,441.75 0,243.27 198.48,441.73 441.75,441.73l696.83 0 0 1468.24c0,297.63 235.34,532.98 532.97,532.98l1771.94 0c1093.61,0 1813.47,-442.98 1813.47,-1328.95l0 -13.85c0,-650.63 -346.09,-975.94 -906.74,-1190.51zm-2173.4 -1377.41l0 0 1052.1 0c449.89,0 699.08,179.96 699.08,498.35l0 13.85c0,359.92 -297.63,512.2 -768.32,512.2l-982.87 0 0 -1024.4zm2021.12 2450.26l0 0c0,359.92 -283.78,526.03 -754.45,526.03l-1266.67 0 0 -1065.93 1232.06 0c546.81,0 789.06,200.73 789.06,526.05l0 13.85z"/>
     <path class="fil0" d="M20510.7 3471.75c-297.62,0 -532.96,235.34 -532.96,532.98l0 3862.27c0,297.63 235.34,532.98 532.96,532.98 297.63,0 532.97,-235.34 532.97,-532.98l0 -3862.27c0,-297.63 -235.34,-532.98 -532.97,-532.98z"/>
     <path class="fil0" d="M24220.74 5458.27c-837.51,-214.58 -1045.17,-318.4 -1045.17,-636.79l0 -13.85c0,-235.33 214.57,-422.21 622.94,-422.21 332.24,0 664.47,117.66 1017.49,325.31 83.06,48.44 166.11,76.14 269.95,76.14 276.86,0 498.35,-214.57 498.35,-491.44 0,-207.64 -117.67,-353 -235.34,-422.23 -436.06,-276.86 -948.26,-429.14 -1536.59,-429.14 -989.79,0 -1695.8,581.41 -1695.8,1460.48l0 13.83c0,962.11 629.87,1232.06 1605.83,1481.23 809.83,207.64 975.94,346.09 975.94,616.02l0 13.85c0,283.78 -263.02,456.83 -699.08,456.83 -470.67,0 -872.12,-166.13 -1238.96,-436.08 -69.23,-48.44 -166.13,-96.9 -304.56,-96.9 -276.87,0 -498.37,214.57 -498.37,491.44 0,166.11 83.06,318.39 200.73,401.45 539.88,387.6 1183.6,581.41 1820.4,581.41 1045.15,0 1778.85,-539.88 1778.85,-1501.99l0 -13.85c0,-844.44 -553.73,-1197.43 -1536.59,-1453.53z"/>
     <path class="fil0" d="M28984.57 3430.22c-1495.07,0 -2581.77,1128.24 -2581.77,2505.65l0 13.83c0,1377.41 1072.85,2491.8 2567.94,2491.8 1495.07,0 2581.77,-1128.24 2581.77,-2505.63l0 -13.85c0,-1377.41 -1072.85,-2491.8 -2567.94,-2491.8zm1453.55 2519.48l0 0c0,830.6 -595.26,1508.92 -1453.55,1508.92 -858.29,0 -1467.38,-692.16 -1467.38,-1522.75l0 -13.85c0,-830.59 595.26,-1508.92 1453.55,-1508.92 858.27,0 1467.38,692.16 1467.38,1522.77l0 13.83z"/>
     <path class="fil0" d="M36144.93 3471.75c-290.71,0 -526.05,235.34 -526.05,526.05l0 2498.71 -2055.72 -2699.42c-145.35,-186.88 -297.63,-311.48 -553.73,-311.48l-110.75 0c-297.63,0 -532.98,235.34 -532.98,532.98l0 3855.34c0,290.71 235.34,526.05 526.05,526.05 290.71,0 526.05,-235.34 526.05,-526.05l0 -2595.62 2131.86 2796.35c145.35,186.88 297.63,311.47 553.73,311.47l34.61 0c297.63,0 532.97,-235.33 532.97,-532.96l0 -3855.36c0,-290.71 -235.34,-526.05 -526.05,-526.05z"/>
    </g>
    <g>
     <path class="fil1" d="M5926.14 51.59c-792.84,0 -1562.24,155.4 -2286.85,461.88 -699.61,295.92 -1327.81,719.43 -1867.15,1258.77 -539.34,539.35 -962.85,1167.55 -1258.76,1867.16 -306.48,724.61 -461.88,1494.01 -461.88,2286.85 0,792.83 155.4,1562.24 461.88,2286.84 295.91,699.61 719.43,1327.82 1258.76,1867.16 539.35,539.35 1167.55,962.85 1867.15,1258.77 724.61,306.48 1494.02,461.88 2286.85,461.88 792.83,0 1562.24,-155.4 2286.85,-461.88 699.61,-295.92 1327.82,-719.42 1867.15,-1258.77 539.35,-539.34 962.85,-1167.55 1258.76,-1867.16 306.48,-724.6 461.88,-1494.01 461.88,-2286.84 0,-792.84 -155.4,-1562.24 -461.88,-2286.85 -295.91,-699.62 -719.42,-1327.82 -1258.76,-1867.16 -539.34,-539.34 -1167.54,-962.85 -1867.15,-1258.77 -724.61,-306.48 -1494.01,-461.88 -2286.85,-461.88z"/>
     <path class="fil2" d="M5926.14 307.07c-3103.39,0 -5619.17,2515.79 -5619.17,5619.18 0,3103.37 2515.78,5619.17 5619.17,5619.17 3103.38,0 5619.17,-2515.8 5619.17,-5619.17 0,-3103.39 -2515.79,-5619.18 -5619.17,-5619.18z"/>
     <path class="fil3" d="M5037.61 6858.79l232.57 86.08c40.45,-3116.67 -1443.83,-1943.31 -2287.52,-2693.74l13.62 528.77 157.78 34.94c146.92,38.84 308.54,65.19 476.04,92.34 77.36,12.57 168.36,33.49 244.1,41.46 324.71,60.02 626,145.82 773.48,355.3 218.64,310.53 340.09,1082.47 389.93,1554.84zm1783.87 0l-232.57 86.08c-40.45,-3116.67 1443.84,-1943.31 2287.52,-2693.74l-13.62 528.77 -157.78 34.94c-146.92,38.84 -308.54,65.19 -476.04,92.34 -77.36,12.57 -168.36,33.49 -244.1,41.46 -324.71,60.02 -626,145.82 -773.48,355.3 -218.64,310.53 -340.09,1082.47 -389.93,1554.84zm-1901.76 836.56c71.91,912.74 682.72,1385.84 1009.77,1385.84 326.48,0 936.24,-476.17 1009.88,-1385.84l-89.74 -723.22 -920.08 -59 -920.08 59 -89.74 723.22z"/>
     <path class="fil0" d="M5381.9 8157.09c-52.21,-52.26 -136.98,-52.26 -189.19,0 -52.26,52.24 -52.26,136.95 0,189.19 12.52,12.54 311.64,306.78 736.79,306.78 425.15,0 724.27,-294.24 736.79,-306.78 52.26,-52.24 52.26,-136.95 0,-189.19 -52.21,-52.26 -136.98,-52.26 -189.19,0 -2.3,2.27 -232.04,228.38 -547.6,228.38 -312.05,0 -545.61,-226.45 -547.6,-228.38z"/>
     <path class="fil0" d="M4568.1 5139.41c-144.28,-30.07 -278.76,-23.6 -395.43,16.31 -121.7,41.67 -223.29,118.76 -296.15,228 -33.65,50.18 -20.17,118.17 29.95,151.76 50.17,33.65 118.17,20.16 151.82,-29.96 45.47,-68.15 108.86,-116.35 184.67,-142.3 80.24,-27.5 175.62,-31.29 280.52,-9.41 59.17,12.25 117.21,-25.72 129.51,-84.9 12.25,-59.16 -25.73,-117.2 -84.89,-129.51z"/>
     <path class="fil0" d="M4431.05 5629.4c-118.23,0 -214.07,95.84 -214.07,214.07 0,118.22 95.84,214.06 214.07,214.06 118.23,0 214.06,-95.84 214.06,-214.06 0,-118.23 -95.84,-214.07 -214.06,-214.07z"/>
     <path class="fil0" d="M9488.62 3274.7c0,-718.78 -662.57,-1064.59 -1012.91,-1147.04 -48.65,-11.47 -99.46,5.18 -132.07,42.96 -32.53,37.81 -41.34,90.62 -22.82,136.98 1.94,4.83 196.46,501.14 101.47,881.13 -79.49,317.91 -667.04,326.79 -672.95,326.79 -44.74,0 -86.53,22.37 -111.32,59.57 -13.25,19.89 -129.5,202.91 -129.5,502.34 0,166.25 44.87,332.54 85.08,448.22 -305.32,76.3 -593.93,194.28 -758.32,440.85 -319.26,478.87 -387.51,1686.64 -396.02,1867l-522.01 0 -61.96 0 -435.27 0c-8.51,-180.36 -76.77,-1388.13 -396.02,-1867 -164.39,-246.57 -453,-364.55 -758.32,-440.85 40.21,-115.68 85.08,-281.97 85.08,-448.22 0,-299.44 -116.25,-482.45 -129.5,-502.34 -24.8,-37.21 -66.58,-59.57 -111.32,-59.57 -5.91,0 -593.46,-8.88 -672.95,-326.79 -94.98,-379.99 99.54,-876.3 101.47,-881.13 18.52,-46.36 9.72,-99.17 -22.82,-136.98 -32.61,-37.78 -83.41,-54.43 -132.07,-42.96 -350.33,82.44 -1012.91,428.26 -1012.91,1147.04 0,443.26 171.61,812.05 488.71,1066.31 -21.82,107.28 -23.37,282.28 81.85,527.8 186.21,434.51 615.36,439.5 633.55,439.5 59.11,0 107.03,-47.93 107.03,-107.03 0,-59.11 -47.92,-107.03 -107.03,-107.03 -3.03,0 -305.55,-3.55 -436.78,-309.75 -56.55,-131.96 -74.11,-234.05 -75.91,-307.71 22.56,12.55 45.17,25.06 68.76,36.71l9.49 4.7c191.72,95.88 434.74,141.71 691.99,190.21 71.21,13.43 142.83,26.94 213.44,41.6 6.74,1.96 13.53,3.37 20.33,4.26 310.85,65.69 598.55,155.58 735.27,360.68 239.43,359.17 332.61,1334.27 350.87,1719.87 -52.04,3.77 -155.91,20.19 -227.13,91.42 -98.79,98.77 -203.19,373.54 -85.84,725.58 4.83,14.5 12.8,27.08 21.93,38.72 56.47,2.74 193.83,23.47 212.02,-0.76 3.81,-5.12 94.85,-124.15 207.74,-67.65 169.56,84.8 260.63,260.03 261.28,261.28 33.03,66.09 113.36,92.87 179.49,59.81 66.08,-33.03 92.87,-113.41 59.81,-179.49 -5.18,-10.38 -129.85,-255.38 -380.92,-380.91 -129.06,-64.54 -248.95,-50.85 -345.34,-8 -7.68,-148.08 40.63,-239.8 57.91,-258.38 9.69,-7.37 43.38,-14.95 67.05,-15.34l675.03 0 61.96 0 761.77 0c23.67,0.39 57.36,7.97 67.05,15.34 17.27,18.58 65.59,110.3 57.9,258.38 -96.4,-42.86 -216.29,-56.55 -345.34,8 -251.07,125.53 -375.74,370.54 -380.91,380.91 -33.06,66.08 -6.27,146.46 59.81,179.49 66.14,33.06 146.47,6.27 179.49,-59.81 0.65,-1.26 91.71,-176.48 261.28,-261.28 112.89,-56.49 203.93,62.53 207.74,67.65 18.19,24.23 155.55,3.49 212.02,0.76 9.13,-11.64 17.11,-24.23 21.93,-38.72 117.35,-352.04 12.96,-626.8 -85.84,-725.58 -71.21,-71.23 -175.07,-87.65 -227.12,-91.42 18.26,-385.6 111.44,-1360.7 350.87,-1719.87 136.72,-205.1 424.42,-294.99 735.27,-360.68 6.79,-0.89 13.59,-2.3 20.33,-4.26 70.61,-14.66 142.23,-28.17 213.44,-41.6 257.25,-48.5 500.27,-94.33 691.99,-190.21l9.49 -4.7c23.59,-11.64 46.2,-24.15 68.76,-36.71 -1.8,73.66 -19.37,175.75 -75.92,307.71 -131.23,306.2 -433.75,309.75 -436.78,309.75 -59.11,0 -107.03,47.92 -107.03,107.03 0,59.11 47.92,107.03 107.03,107.03 18.18,0 447.33,-4.99 633.54,-439.5 105.23,-245.52 103.67,-420.53 81.85,-527.8 317.1,-254.26 488.71,-623.04 488.71,-1066.31z"/>
     <path class="fil0" d="M7801 5505.52c33.65,50.12 101.65,63.61 151.82,29.96 50.12,-33.6 63.6,-101.59 29.95,-151.76 -72.86,-109.24 -174.44,-186.32 -296.15,-228 -116.67,-39.91 -251.16,-46.38 -395.43,-16.31 -59.16,12.31 -97.15,70.34 -84.9,129.51 12.3,59.17 70.35,97.15 129.51,84.9 104.91,-21.88 200.29,-18.08 280.52,9.41 75.81,25.95 139.2,74.14 184.67,142.3z"/>
     <path class="fil0" d="M7428.25 5629.4c-118.22,0 -214.06,95.84 -214.06,214.07 0,118.22 95.84,214.06 214.06,214.06 118.23,0 214.07,-95.84 214.07,-214.06 0,-118.23 -95.84,-214.07 -214.07,-214.07z"/>
     <path class="fil0" d="M4039.11 2999.7c54.83,-19.91 83.25,-81.03 64.39,-136.22 -3.98,-11.57 -91.99,-287.28 340.35,-628.61 198.2,-156.47 551.05,-242.02 736.42,-278.11l0 408.17c0,43.22 26.05,82.13 65.95,98.75 39.88,16.54 85.95,7.5 116.62,-22.94 3.5,-3.48 356.17,-348.56 844.89,-397.43 316.53,-31.64 596.41,-4.62 763.65,20.59l-378.3 504.37c-28.27,37.71 -28.56,89.45 -0.73,127.47 27.89,37.99 77.24,53.31 121.75,37.79 4.86,-1.73 491,-170.35 761.06,-154.72 227.86,13.4 330.69,70.5 367.74,108.31l-136.09 272.13c-26.42,52.89 -4.99,117.17 47.87,143.61 15.36,7.69 31.69,11.31 47.8,11.31 39.24,0 77.06,-21.69 95.82,-59.18l160.55 -321.1c9.72,-19.46 13.3,-41.47 10.21,-63 -6.53,-45.73 -65.27,-275.42 -581.33,-305.79 -155.63,-9.22 -360.44,30.21 -529.39,72.93l287.65 -383.5c21.51,-28.69 27.24,-66.24 15.24,-100.03 -11.99,-33.81 -40.11,-59.34 -74.92,-68.04 -18.21,-4.57 -452.45,-110.82 -999.89,-56.18 -342.84,34.28 -621.68,189.11 -792.08,309.67l0 -310.2c0,-30.88 -13.35,-60.26 -36.58,-80.59 -23.26,-20.33 -54.22,-29.65 -84.77,-25.48 -25.97,3.5 -639.61,88.82 -961.77,343.15 -563.8,445.12 -414.79,854.46 -408.19,871.65 20.96,54.48 81.37,81.14 136.09,61.2z"/>
     <path class="fil0" d="M8327 5543.77c-47.27,35.48 -56.86,102.57 -21.4,149.86 2.98,3.94 295.83,401.45 246.63,942.88 -25.14,276.52 -81.55,475.77 -127.73,599.94l-160.24 -224.33c-25.97,-36.32 -71.81,-52.65 -114.87,-41.15 -43.14,11.6 -74.55,48.76 -78.79,93.24 -1.02,10.95 -108.44,1101.57 -462.77,1607.75 -251.14,358.77 -529.67,646.45 -678.28,790.36l-153.02 -344.33c-17.43,-39.22 -55.69,-64.47 -99.63,-63.42 -42.97,0.71 -81.35,27.13 -97.47,66.95 -0.99,2.48 -103.87,252.29 -350.99,499.43 -149.84,149.83 -246.62,229.25 -298.89,268.18 -52.71,-39.2 -149.42,-118.61 -298.98,-268.18 -247.12,-247.15 -350,-496.96 -350.92,-499.23 -15.99,-39.95 -54.32,-66.45 -97.36,-67.26 -0.68,-0.03 -1.36,-0.03 -2.01,-0.03 -42.23,0 -80.62,24.85 -97.82,63.55l-153.01 344.33c-148.61,-143.91 -427.14,-431.58 -678.28,-790.36 -353.92,-505.58 -461.73,-1596.8 -462.81,-1607.78 -4.24,-44.45 -35.64,-81.61 -78.76,-93.18 -43.27,-11.63 -88.92,4.81 -114.87,41.13l-160.2 224.31c-46.22,-124.23 -102.62,-323.45 -127.76,-599.91 -48.91,-537.99 243.8,-939.09 246.63,-942.88 35.46,-47.3 25.87,-114.38 -21.41,-149.86 -47.24,-35.41 -114.34,-25.87 -149.86,21.4 -14.11,18.84 -345.13,468.21 -288.53,1090.73 51.16,562.86 223.02,838.95 230.31,850.43 19.08,30.05 51.85,48.63 87.44,49.6 35.28,0.78 69.3,-15.84 90,-44.76l109.17 -152.84c57.09,375.48 191.93,1045.91 465.26,1436.39 377.72,539.58 802.09,913.3 819.96,928.96 25.61,22.39 60.36,31.25 93.5,23.96 33.21,-7.32 60.96,-29.97 74.78,-61.04l124.8 -280.8c64.04,103.61 158.88,235.02 290.4,366.51 271.99,272.02 389.87,334.89 402.41,341.16 15.08,7.53 31.46,11.29 47.87,11.29 16.41,0 32.79,-3.76 47.87,-11.29 12.54,-6.27 130.42,-69.14 402.41,-341.16 131.52,-131.49 226.35,-262.9 290.4,-366.51l124.8 280.8c13.82,31.07 41.57,53.72 74.78,61.04 33.16,7.29 67.91,-1.57 93.49,-23.96 17.88,-15.66 442.24,-389.38 819.96,-928.96 273.33,-390.47 408.16,-1060.91 465.26,-1436.39l109.17 152.84c20.67,28.93 54.12,45.57 90,44.76 35.58,-0.97 68.35,-19.55 87.43,-49.6 7.29,-11.47 179.16,-287.57 230.32,-850.43 56.6,-622.52 -274.43,-1071.89 -288.54,-1090.73 -35.46,-47.27 -102.54,-56.81 -149.86,-21.4z"/>
     <path class="fil1" d="M3249.34 4273.58l10.68 5.3c158.33,79.15 383.5,121.61 621.92,166.58 39.59,7.45 79.64,15 119.97,22.86 35.17,-94.67 81.29,-246.33 81.29,-390.89 0,-136.85 -32.14,-239.49 -56.79,-298.07 -209.28,-15.81 -742.08,-98.1 -848.99,-525.73 -67.18,-268.7 -22.18,-568.27 29.56,-777.76 -238.18,113.23 -568.71,351.05 -568.71,798.82 0,318.04 106.01,749.49 611.08,998.88z"/>
     <path class="fil1" d="M7977.36 4445.47c238.42,-44.97 463.59,-87.43 621.92,-166.58l10.68 -5.3c505.06,-249.39 611.08,-680.84 611.08,-998.88 0,-447.77 -330.54,-685.6 -568.71,-798.82 51.74,209.49 96.74,509.06 29.56,777.76 -106.9,427.63 -639.71,509.92 -849,525.73 -24.64,58.58 -56.78,161.23 -56.78,298.07 0,144.56 46.12,296.22 81.29,390.89 40.32,-7.86 80.38,-15.42 119.97,-22.86z"/>
    </g>
   </g>
   <rect class="fil4" x="-0.01" y="-0" width="36722.47" height="11852.48"/>
  </g>
 </g>
</svg>
