<svg width="462" height="143" viewBox="0 0 462 143" fill="none" xmlns="http://www.w3.org/2000/svg">
<g clip-path="url(#clip0)">
<path d="M152.55 76.55V28.45H157.15C158.948 28.45 160.673 29.1643 161.944 30.4358C163.216 31.7073 163.93 33.4318 163.93 35.23V56.62C171.3 50.04 177.58 47.41 185.93 47.24C201.93 46.91 215.93 58.82 217.21 74.8C218.79 93.9 204.9 108.27 186.81 108.27C166.96 108.27 152.55 95.95 152.55 76.55ZM163.75 80.33C164.87 90.27 174.37 98.48 184.38 98.64C197.38 98.84 206.31 90.34 206.31 77.75C206.31 65.16 197.63 56.85 184.94 56.85C171.39 56.85 162.21 66.7 163.75 80.33Z" fill="black"/>
<path d="M236.23 48.45V57.02C243.39 49.02 247.65 46.93 256.03 46.93C258.472 46.9336 260.909 47.1309 263.32 47.52V58.9C260.747 58.1905 258.089 57.8339 255.42 57.84C249.35 57.84 244.25 59.84 240.48 63.59C237.2 66.88 236.23 69.46 236.23 74.59V106.28H224.45V48.45H236.23Z" fill="black"/>
<path d="M266.11 67.57C266.72 61.94 267.81 58.89 270.24 55.95C275.1 49.95 283.85 46.95 296.24 46.95C306.08 46.95 313.24 48.48 318.24 51.76C322.37 54.46 324.07 58.45 324.07 65.49V91.19C324.07 96.82 325.53 98.82 329.54 98.7C330.434 98.6678 331.325 98.5877 332.21 98.46V106.21C330.217 106.893 328.116 107.212 326.01 107.15C318.6 107.15 315.2 104.92 312.9 98.47C305.61 105.16 298.08 107.98 287.27 107.98C272.82 107.98 263.95 101.41 263.95 90.73C263.919 87.748 264.766 84.8227 266.386 82.3189C268.006 79.8151 270.327 77.8435 273.06 76.65C277.43 74.77 280.06 74.19 292.62 72.89C303.31 71.83 305.13 71.6 308.17 70.66C311.45 69.6 312.91 67.85 312.91 64.91C312.91 58.69 307.69 55.91 296.75 55.91C286.41 55.91 281.09 57.91 278.95 63.19C278.439 64.5018 277.545 65.6291 276.383 66.4248C275.222 67.2204 273.848 67.6474 272.44 67.65L266.11 67.57ZM312.88 77.45C305.376 79.6334 297.67 81.0506 289.88 81.68C279.31 82.74 276.03 84.68 276.03 90.01C276.03 95.88 280.89 98.93 290.48 98.93C298.38 98.93 304.33 96.93 308.58 93.06C311.98 89.89 312.83 87.66 312.83 82.14L312.88 77.45Z" fill="black"/>
<path d="M360.71 106.29H357.71C356.399 106.294 355.114 105.929 354 105.238C352.886 104.546 351.989 103.556 351.41 102.38L325.89 48.45H332.97C334.988 48.4344 336.966 49.0055 338.665 50.0938C340.364 51.1821 341.711 52.7407 342.54 54.58L359.54 93.4L377.09 54.45C377.936 52.6413 379.284 51.1139 380.974 50.0501C382.663 48.9863 384.623 48.4308 386.62 48.45H393.05L366.98 102.45C366.394 103.609 365.497 104.581 364.39 105.259C363.283 105.938 362.008 106.294 360.71 106.29V106.29Z" fill="black"/>
<path d="M401.04 80.71C402.25 91.86 411.04 98.78 424.04 98.78C431.42 98.78 436.92 96.59 440.39 92.2C441.375 90.9544 442.628 89.9476 444.057 89.255C445.485 88.5623 447.052 88.2016 448.64 88.2H455.49C449.49 101.35 438.85 107.8 422.94 107.8C403.02 107.8 389.66 95.71 389.66 77.64C389.66 59.57 403.39 46.89 423.19 46.89C437.52 46.89 449.06 53.34 453.68 64.14C455.74 69.07 456.6 73.53 456.6 80.68L401.04 80.71ZM444.52 71.79C441.85 61.58 433.95 55.79 423.02 55.79C412.09 55.79 404.19 61.54 401.4 71.79H444.52Z" fill="black"/>
<path d="M121.63 46.16L117.23 34.21L120.29 27.35C120.482 26.9172 120.539 26.4365 120.454 25.9708C120.368 25.505 120.144 25.076 119.81 24.74L111.49 16.33C109.704 14.5177 107.44 13.25 104.961 12.6747C102.483 12.0993 99.8917 12.2399 97.49 13.08L95.16 13.89L82.45 0.119995L60.89 0H60.75L39.05 0.169998L26.35 14.05L24.09 13.25C21.6727 12.3999 19.063 12.257 16.5673 12.8379C14.0716 13.4189 11.7933 14.6997 9.99998 16.53L1.52998 25.1C1.26416 25.3679 1.08561 25.7099 1.01779 26.0811C0.94997 26.4524 0.996056 26.8354 1.14999 27.18L4.34 34.3L-0.0400085 46.24L2.78999 57.01L15.7 106.09C17.1873 111.744 20.6089 116.698 25.37 120.09C25.37 120.09 41.04 131.14 56.5 141.18C57.7226 142.156 59.2406 142.688 60.805 142.688C62.3694 142.688 63.8874 142.156 65.11 141.18C82.48 129.8 96.22 120.05 96.22 120.05C100.977 116.656 104.395 111.702 105.88 106.05L118.72 56.95L121.63 46.16Z" fill="url(#paint0_linear)"/>
<path d="M64.35 88.45C63.527 88.0816 62.678 87.7741 61.81 87.53H60.28C59.412 87.7741 58.563 88.0816 57.74 88.45L53.89 90.05C52.67 90.56 50.71 91.47 49.54 92.05L42.46 95.74C42.2036 95.8232 41.978 95.9813 41.8122 96.1938C41.6464 96.4063 41.548 96.6636 41.5297 96.9325C41.5114 97.2015 41.5741 97.4697 41.7096 97.7028C41.8451 97.9358 42.0472 98.1229 42.29 98.24L48.44 102.58C49.52 103.34 51.22 104.68 52.22 105.58L53.95 107.07C54.95 107.93 56.58 109.36 57.57 110.24L59.21 111.69C59.7168 112.112 60.3554 112.343 61.015 112.343C61.6746 112.343 62.3133 112.112 62.82 111.69L64.54 110.19L68.16 107.03L69.9 105.51C70.9 104.64 72.59 103.3 73.67 102.51L79.82 98.11C80.0633 97.9932 80.2657 97.8057 80.4006 97.5719C80.5355 97.3382 80.5967 97.0692 80.5762 96.8001C80.5556 96.531 80.4543 96.2744 80.2855 96.0638C80.1167 95.8532 79.8882 95.6986 79.63 95.62L72.56 92.03C71.38 91.43 69.42 90.53 68.19 90.03L64.35 88.45Z" fill="white"/>
<path d="M107.95 48.83L108.15 48.19C108.162 47.3339 108.108 46.478 107.99 45.63C107.395 44.1152 106.63 42.6727 105.71 41.33L101.71 35.46C100.97 34.36 99.71 32.62 98.86 31.59L93.5 24.88C93.0111 24.226 92.4799 23.6047 91.91 23.02H91.8C91.8 23.02 90.72 23.21 89.42 23.46L81.23 25.04L77.64 25.73C76.4481 25.786 75.2566 25.6129 74.13 25.22L67.66 23.13C66.4 22.72 64.32 22.13 63.03 21.85C61.6705 21.7055 60.2995 21.7055 58.94 21.85C57.65 22.15 55.57 22.73 54.31 23.14L47.84 25.24C46.7134 25.6329 45.5218 25.806 44.33 25.75L40.74 25.07L32.54 23.5C31.24 23.25 30.17 23.05 30.16 23.06H30.05C29.48 23.6447 28.9489 24.266 28.46 24.92L23.11 31.63C22.29 32.63 21 34.41 20.26 35.5L16.26 41.37C15.5692 42.3823 14.9381 43.4341 14.37 44.52C14.0273 45.7309 13.8457 46.9817 13.83 48.24L14.03 48.88C14.1263 49.2911 14.2499 49.6954 14.4 50.09C15.23 51.09 16.65 52.75 17.56 53.72L31.56 68.6C32.0248 69.1426 32.3357 69.7997 32.4606 70.5032C32.5855 71.2066 32.5196 71.9306 32.27 72.6L29.98 78.03C29.4593 79.4686 29.4207 81.0376 29.87 82.5L30.33 83.76C31.0816 85.8064 32.37 87.6129 34.06 88.99L36.26 90.78C36.8315 91.1923 37.4984 91.4526 38.198 91.5365C38.8977 91.6205 39.6072 91.5253 40.26 91.26L48.08 87.53C49.5154 86.8114 50.8585 85.9216 52.08 84.88L58.34 79.23C58.5893 79.0049 58.791 78.732 58.9329 78.4276C59.0749 78.1231 59.1543 77.7932 59.1664 77.4575C59.1785 77.1218 59.1231 76.7871 59.0035 76.4731C58.8839 76.1592 58.7025 75.8725 58.47 75.63L44.34 66.11C43.805 65.7304 43.4239 65.1714 43.2661 64.5346C43.1083 63.8978 43.1842 63.2256 43.48 62.64L48.96 52.34C49.2716 51.7095 49.4559 51.0237 49.5022 50.3219C49.5485 49.6201 49.456 48.916 49.23 48.25C48.5495 46.9795 47.4508 45.9833 46.12 45.43L28.94 38.94C27.7 38.47 27.77 37.94 29.08 37.86L39.17 36.86C40.7522 36.7594 42.3405 36.901 43.88 37.28L52.66 39.73C53.2833 39.9179 53.8174 40.3255 54.1631 40.8771C54.5088 41.4288 54.6427 42.0871 54.54 42.73L51.09 61.57C50.8593 62.6135 50.8018 63.6879 50.92 64.75C51.06 65.2 52.24 65.75 53.53 66.07L58.88 67.21C60.4336 67.4956 62.0263 67.4956 63.58 67.21L68.39 66.12C69.68 65.83 70.85 65.22 71 64.77C71.1151 63.7073 71.0543 62.6329 70.82 61.59L67.35 42.75C67.2473 42.1071 67.3812 41.4488 67.7269 40.8971C68.0726 40.3455 68.6067 39.9379 69.23 39.75L78.01 37.29C79.5494 36.9109 81.1378 36.7692 82.72 36.87L92.81 37.81C94.13 37.93 94.19 38.42 92.96 38.89L75.79 45.4C74.4592 45.9533 73.3605 46.9496 72.68 48.22C72.2246 49.5653 72.3217 51.0363 72.95 52.31L78.44 62.61C78.7358 63.1956 78.8117 63.8678 78.6539 64.5046C78.496 65.1414 78.115 65.7004 77.58 66.08L63.46 75.62C63.2275 75.8625 63.0461 76.1492 62.9265 76.4632C62.8069 76.7771 62.7515 77.1118 62.7636 77.4475C62.7757 77.7832 62.8551 78.1131 62.9971 78.4176C63.139 78.722 63.3406 78.9949 63.59 79.22L69.86 84.87C71.082 85.9081 72.4251 86.7945 73.86 87.51L81.68 91.23C82.3336 91.4939 83.0436 91.5874 83.7433 91.5017C84.443 91.416 85.1094 91.1539 85.68 90.74L87.88 88.94C89.5718 87.5605 90.8604 85.7503 91.61 83.7L92.07 82.44C92.5193 80.9776 92.4807 79.4086 91.96 77.97L89.66 72.54C89.4103 71.8706 89.3445 71.1466 89.4694 70.4432C89.5942 69.7397 89.9052 69.0826 90.37 68.54L104.37 53.64C105.28 52.64 106.69 51.04 107.52 50.01C107.689 49.6266 107.833 49.2324 107.95 48.83Z" fill="white"/>
<path d="M461.99 49.17C462.016 50.1471 461.75 51.1096 461.225 51.9345C460.701 52.7593 459.942 53.4088 459.046 53.7999C458.15 54.1909 457.158 54.3057 456.197 54.1296C455.236 53.9534 454.349 53.4944 453.65 52.8111C452.951 52.1279 452.471 51.2516 452.274 50.2944C452.076 49.3373 452.168 48.3428 452.538 47.4384C452.909 46.5339 453.541 45.7607 454.354 45.2176C455.166 44.6745 456.123 44.3864 457.1 44.39C457.736 44.3781 458.368 44.4927 458.96 44.7274C459.551 44.962 460.09 45.3119 460.545 45.7567C461 46.2015 461.362 46.7323 461.61 47.3183C461.858 47.9042 461.987 48.5337 461.99 49.17V49.17ZM453.4 49.17C453.384 49.6684 453.469 50.165 453.649 50.6298C453.83 51.0947 454.102 51.5183 454.451 51.8751C454.799 52.2319 455.216 52.5146 455.677 52.7062C456.137 52.8978 456.631 52.9943 457.13 52.99C457.62 52.9876 458.105 52.8869 458.555 52.6937C459.006 52.5005 459.413 52.2188 459.752 51.8653C460.092 51.5118 460.357 51.0938 460.531 50.6359C460.706 50.1781 460.787 49.6898 460.77 49.2C460.796 48.6999 460.72 48.1998 460.547 47.73C460.373 47.2603 460.106 46.8307 459.761 46.4676C459.417 46.1044 459.001 45.8152 458.541 45.6175C458.081 45.4199 457.586 45.318 457.085 45.318C456.584 45.318 456.089 45.4199 455.629 45.6175C455.169 45.8152 454.754 46.1044 454.409 46.4676C454.064 46.8307 453.797 47.2603 453.623 47.73C453.45 48.1998 453.374 48.6999 453.4 49.2V49.17ZM456.34 51.68H455.23V46.9C455.837 46.7913 456.453 46.741 457.07 46.75C457.646 46.7045 458.222 46.826 458.73 47.1C458.874 47.2242 458.989 47.3777 459.068 47.5502C459.148 47.7227 459.189 47.9101 459.19 48.1C459.168 48.3691 459.059 48.6236 458.878 48.8242C458.697 49.0248 458.455 49.1604 458.19 49.21V49.27C458.426 49.3664 458.632 49.5253 458.786 49.7296C458.939 49.9339 459.034 50.176 459.06 50.43C459.107 50.8439 459.226 51.2465 459.41 51.62H458.21C458.027 51.2542 457.899 50.8633 457.83 50.46C457.74 49.94 457.45 49.7 456.83 49.7H456.31L456.34 51.68ZM456.34 48.97H456.86C457.47 48.97 457.97 48.77 457.97 48.27C457.97 47.77 457.65 47.54 456.97 47.54C456.765 47.5359 456.56 47.556 456.36 47.6L456.34 48.97Z" fill="#77777A"/>
</g>
<defs>
<linearGradient id="paint0_linear" x1="-8.54449e-06" y1="71.35" x2="121.59" y2="71.35" gradientUnits="userSpaceOnUse">
<stop stop-color="#F1562B"/>
<stop offset="0.3" stop-color="#F1542B"/>
<stop offset="0.41" stop-color="#F04D2A"/>
<stop offset="0.49" stop-color="#EF4229"/>
<stop offset="0.5" stop-color="#EF4029"/>
<stop offset="0.56" stop-color="#E83E28"/>
<stop offset="0.67" stop-color="#E13C26"/>
<stop offset="1" stop-color="#DF3C26"/>
</linearGradient>
<clipPath id="clip0">
<rect width="461.99" height="142.7" fill="white"/>
</clipPath>
</defs>
</svg>
