<svg width="231" height="40" viewBox="0 0 231 40" fill="none" xmlns="http://www.w3.org/2000/svg"><path fill-rule="evenodd" clip-rule="evenodd" d="M58.866 7.727V.762H1.72V8.44h39.87L.953 32.187v6.965h59.01l1.372-7.678H18.282L58.866 7.727zm18.811 15.904h37.512l1.316-7.348H77.677V8.44h40.474l1.371-7.678H72.741v.055H68.9v38.335h51.772l1.372-7.678H77.677v-7.843zM142.994.817h-8.884l-6.581 38.335h47.494v-7.678h-37.292L142.994.817zm86.597 7.623l1.371-7.678h-44.587v.055h-3.839v38.335h8.775v-15.52h35.319l1.316-7.35h-36.635V8.44h38.28z" fill="#000"/></svg>